<svg width="456" height="193" viewBox="0 0 456 193" fill="none" xmlns="http://www.w3.org/2000/svg">
<path d="M332.594 155.562C332.073 155.562 331.615 155.521 331.219 155.438C330.906 156.062 330.531 156.646 330.094 157.188C329.656 157.708 329.146 158.167 328.562 158.562C328 158.958 327.365 159.271 326.656 159.5C325.948 159.729 325.177 159.844 324.344 159.844C323.365 159.844 322.469 159.667 321.656 159.312C320.844 158.979 320.135 158.51 319.531 157.906C318.927 157.281 318.458 156.542 318.125 155.688C317.792 154.812 317.625 153.854 317.625 152.812C317.625 151.479 317.865 150.323 318.344 149.344C318.823 148.344 319.375 147.521 320 146.875C320.625 146.208 321.25 145.719 321.875 145.406C322.5 145.073 322.969 144.906 323.281 144.906C323.635 144.906 323.896 145 324.062 145.188C324.25 145.375 324.344 145.625 324.344 145.938C324.344 146.292 324.229 146.562 324 146.75C323.792 146.917 323.521 147.083 323.188 147.25C322.854 147.417 322.5 147.656 322.125 147.969C321.75 148.26 321.396 148.635 321.062 149.094C320.75 149.552 320.49 150.094 320.281 150.719C320.073 151.344 319.969 152.042 319.969 152.812C319.969 153.5 320.073 154.146 320.281 154.75C320.49 155.333 320.792 155.844 321.188 156.281C321.583 156.698 322.052 157.031 322.594 157.281C323.135 157.51 323.74 157.625 324.406 157.625C325.594 157.625 326.573 157.354 327.344 156.812C328.135 156.25 328.74 155.542 329.156 154.688C327.927 154.042 326.917 153.125 326.125 151.938C325.333 150.75 324.938 149.417 324.938 147.938C324.938 146.75 325.219 145.781 325.781 145.031C326.365 144.281 327.125 143.906 328.062 143.906C328.625 143.906 329.156 144.042 329.656 144.312C330.156 144.583 330.594 145.01 330.969 145.594C331.365 146.177 331.677 146.927 331.906 147.844C332.135 148.76 332.25 149.854 332.25 151.125C332.25 151.792 332.167 152.49 332 153.219C332.125 153.24 332.25 153.25 332.375 153.25C332.5 153.25 332.635 153.25 332.781 153.25C333.49 153.25 334.125 153.167 334.688 153C335.25 152.833 335.76 152.583 336.219 152.25C336.677 151.917 337.083 151.49 337.438 150.969C337.812 150.448 338.167 149.844 338.5 149.156C338.562 149.031 338.698 148.917 338.906 148.812C339.115 148.688 339.323 148.625 339.531 148.625C339.802 148.625 340.052 148.74 340.281 148.969C340.531 149.177 340.656 149.458 340.656 149.812C340.656 149.979 340.615 150.167 340.531 150.375C340.448 150.562 340.365 150.74 340.281 150.906C339.927 151.531 339.51 152.135 339.031 152.719C338.573 153.281 338.021 153.781 337.375 154.219C336.75 154.635 336.042 154.969 335.25 155.219C334.458 155.469 333.573 155.583 332.594 155.562ZM327.25 147.688C327.25 148.083 327.302 148.5 327.406 148.938C327.51 149.375 327.667 149.812 327.875 150.25C328.104 150.667 328.375 151.073 328.688 151.469C329.021 151.844 329.406 152.167 329.844 152.438C329.906 152 329.938 151.573 329.938 151.156C329.938 150.594 329.896 150.021 329.812 149.438C329.729 148.854 329.604 148.323 329.438 147.844C329.292 147.344 329.104 146.948 328.875 146.656C328.646 146.344 328.375 146.188 328.062 146.188C327.938 146.188 327.771 146.281 327.562 146.469C327.354 146.656 327.25 147.062 327.25 147.688ZM345.375 156.188C345.708 155.5 346.094 154.75 346.531 153.938C346.969 153.104 347.438 152.271 347.938 151.438C348.438 150.583 348.958 149.74 349.5 148.906C350.062 148.073 350.646 147.281 351.25 146.531C351.854 145.802 352.458 145.281 353.062 144.969C353.688 144.635 354.271 144.469 354.812 144.469C355.896 144.469 356.698 144.865 357.219 145.656C357.74 146.448 358 147.427 358 148.594C358 148.865 357.979 149.198 357.938 149.594C357.917 149.969 357.885 150.375 357.844 150.812C357.823 151.25 357.792 151.698 357.75 152.156C357.729 152.594 357.719 153.01 357.719 153.406C357.719 153.906 357.74 154.385 357.781 154.844C357.844 155.302 357.948 155.708 358.094 156.062C358.24 156.396 358.448 156.667 358.719 156.875C358.99 157.062 359.344 157.156 359.781 157.156C360.573 157.156 361.344 156.854 362.094 156.25C362.844 155.625 363.531 154.896 364.156 154.062C364.802 153.208 365.354 152.344 365.812 151.469C366.292 150.594 366.646 149.885 366.875 149.344C366.979 149.115 367.125 148.938 367.312 148.812C367.521 148.688 367.74 148.625 367.969 148.625C368.323 148.625 368.604 148.76 368.812 149.031C369.042 149.281 369.156 149.552 369.156 149.844C369.156 149.99 369.125 150.135 369.062 150.281C368.979 150.448 368.812 150.792 368.562 151.312C368.312 151.833 367.979 152.438 367.562 153.125C367.167 153.792 366.698 154.51 366.156 155.281C365.615 156.031 365.01 156.719 364.344 157.344C363.698 157.969 362.99 158.49 362.219 158.906C361.469 159.323 360.677 159.531 359.844 159.531C358.906 159.531 358.146 159.354 357.562 159C356.979 158.625 356.521 158.146 356.188 157.562C355.854 156.958 355.625 156.302 355.5 155.594C355.396 154.865 355.344 154.135 355.344 153.406C355.344 153.094 355.354 152.74 355.375 152.344C355.417 151.948 355.458 151.531 355.5 151.094C355.562 150.656 355.604 150.219 355.625 149.781C355.667 149.344 355.688 148.927 355.688 148.531C355.688 147.865 355.583 147.417 355.375 147.188C355.167 146.938 354.979 146.812 354.812 146.812C354.479 146.812 354.094 147.01 353.656 147.406C353.24 147.781 352.792 148.281 352.312 148.906C351.854 149.531 351.375 150.24 350.875 151.031C350.396 151.802 349.938 152.573 349.5 153.344C349.083 154.115 348.688 154.854 348.312 155.562C347.958 156.25 347.677 156.823 347.469 157.281C347.052 158.156 346.635 158.74 346.219 159.031C345.802 159.344 345.375 159.5 344.938 159.5C344.333 159.5 343.844 159.323 343.469 158.969C343.115 158.594 342.938 158.073 342.938 157.406C342.938 157.26 342.958 156.979 343 156.562C343.042 156.125 343.094 155.615 343.156 155.031C343.219 154.427 343.281 153.781 343.344 153.094C343.406 152.406 343.469 151.729 343.531 151.062C343.594 150.375 343.646 149.74 343.688 149.156C343.729 148.573 343.75 148.083 343.75 147.688C343.75 147.167 343.729 146.667 343.688 146.188C343.646 145.708 343.562 145.417 343.438 145.312C343.25 145.375 342.917 145.771 342.438 146.5C341.958 147.208 341.344 148.469 340.594 150.281C340.49 150.51 340.333 150.688 340.125 150.812C339.917 150.938 339.698 151 339.469 151C339.115 151 338.833 150.885 338.625 150.656C338.417 150.406 338.312 150.125 338.312 149.812C338.312 149.667 338.344 149.51 338.406 149.344C339.344 147.115 340.219 145.479 341.031 144.438C341.865 143.375 342.688 142.844 343.5 142.844C343.979 142.844 344.385 142.969 344.719 143.219C345.052 143.448 345.312 143.76 345.5 144.156C345.708 144.552 345.854 144.99 345.938 145.469C346.042 145.948 346.094 146.438 346.094 146.938C346.094 147.312 346.062 147.896 346 148.688C345.958 149.479 345.896 150.333 345.812 151.25C345.729 152.146 345.646 153.042 345.562 153.938C345.5 154.833 345.438 155.583 345.375 156.188ZM373.875 156.188C374.208 155.5 374.594 154.75 375.031 153.938C375.469 153.104 375.938 152.271 376.438 151.438C376.938 150.583 377.458 149.74 378 148.906C378.562 148.073 379.146 147.281 379.75 146.531C380.354 145.802 380.958 145.281 381.562 144.969C382.188 144.635 382.771 144.469 383.312 144.469C384.396 144.469 385.198 144.865 385.719 145.656C386.24 146.448 386.5 147.427 386.5 148.594C386.5 148.865 386.479 149.198 386.438 149.594C386.417 149.969 386.385 150.375 386.344 150.812C386.323 151.25 386.292 151.698 386.25 152.156C386.229 152.594 386.219 153.01 386.219 153.406C386.219 153.906 386.24 154.385 386.281 154.844C386.344 155.302 386.448 155.708 386.594 156.062C386.74 156.396 386.948 156.667 387.219 156.875C387.49 157.062 387.844 157.156 388.281 157.156C389.073 157.156 389.844 156.854 390.594 156.25C391.344 155.625 392.031 154.896 392.656 154.062C393.302 153.208 393.854 152.344 394.312 151.469C394.792 150.594 395.146 149.885 395.375 149.344C395.479 149.115 395.625 148.938 395.812 148.812C396.021 148.688 396.24 148.625 396.469 148.625C396.823 148.625 397.104 148.76 397.312 149.031C397.542 149.281 397.656 149.552 397.656 149.844C397.656 149.99 397.625 150.135 397.562 150.281C397.479 150.448 397.312 150.792 397.062 151.312C396.812 151.833 396.479 152.438 396.062 153.125C395.667 153.792 395.198 154.51 394.656 155.281C394.115 156.031 393.51 156.719 392.844 157.344C392.198 157.969 391.49 158.49 390.719 158.906C389.969 159.323 389.177 159.531 388.344 159.531C387.406 159.531 386.646 159.354 386.062 159C385.479 158.625 385.021 158.146 384.688 157.562C384.354 156.958 384.125 156.302 384 155.594C383.896 154.865 383.844 154.135 383.844 153.406C383.844 153.094 383.854 152.74 383.875 152.344C383.917 151.948 383.958 151.531 384 151.094C384.062 150.656 384.104 150.219 384.125 149.781C384.167 149.344 384.188 148.927 384.188 148.531C384.188 147.865 384.083 147.417 383.875 147.188C383.667 146.938 383.479 146.812 383.312 146.812C382.979 146.812 382.594 147.01 382.156 147.406C381.74 147.781 381.292 148.281 380.812 148.906C380.354 149.531 379.875 150.24 379.375 151.031C378.896 151.802 378.438 152.573 378 153.344C377.583 154.115 377.188 154.854 376.812 155.562C376.458 156.25 376.177 156.823 375.969 157.281C375.552 158.156 375.135 158.74 374.719 159.031C374.302 159.344 373.875 159.5 373.438 159.5C372.833 159.5 372.344 159.323 371.969 158.969C371.615 158.594 371.438 158.073 371.438 157.406C371.438 157.26 371.458 156.979 371.5 156.562C371.542 156.125 371.594 155.615 371.656 155.031C371.719 154.427 371.781 153.781 371.844 153.094C371.906 152.406 371.969 151.729 372.031 151.062C372.094 150.375 372.146 149.74 372.188 149.156C372.229 148.573 372.25 148.083 372.25 147.688C372.25 147.167 372.229 146.667 372.188 146.188C372.146 145.708 372.062 145.417 371.938 145.312C371.75 145.375 371.417 145.771 370.938 146.5C370.458 147.208 369.844 148.469 369.094 150.281C368.99 150.51 368.833 150.688 368.625 150.812C368.417 150.938 368.198 151 367.969 151C367.615 151 367.333 150.885 367.125 150.656C366.917 150.406 366.812 150.125 366.812 149.812C366.812 149.667 366.844 149.51 366.906 149.344C367.844 147.115 368.719 145.479 369.531 144.438C370.365 143.375 371.188 142.844 372 142.844C372.479 142.844 372.885 142.969 373.219 143.219C373.552 143.448 373.812 143.76 374 144.156C374.208 144.552 374.354 144.99 374.438 145.469C374.542 145.948 374.594 146.438 374.594 146.938C374.594 147.312 374.562 147.896 374.5 148.688C374.458 149.479 374.396 150.333 374.312 151.25C374.229 152.146 374.146 153.042 374.062 153.938C374 154.833 373.938 155.583 373.875 156.188ZM399.188 155.562C399.625 156.167 400.188 156.656 400.875 157.031C401.562 157.385 402.406 157.562 403.406 157.562C404.427 157.562 405.354 157.323 406.188 156.844C407.021 156.344 407.781 155.698 408.469 154.906C409.156 154.115 409.771 153.229 410.312 152.25C410.854 151.271 411.344 150.292 411.781 149.312C411.885 149.083 412.031 148.917 412.219 148.812C412.406 148.688 412.615 148.625 412.844 148.625C413.198 148.625 413.479 148.75 413.688 149C413.917 149.25 414.031 149.521 414.031 149.812C414.031 149.917 414.021 150.01 414 150.094C413.979 150.156 413.948 150.229 413.906 150.312C412.469 153.479 410.896 155.865 409.188 157.469C407.5 159.073 405.583 159.896 403.438 159.938C402.062 159.938 400.875 159.667 399.875 159.125C398.875 158.604 398.052 157.927 397.406 157.094C396.76 156.24 396.281 155.281 395.969 154.219C395.656 153.156 395.5 152.094 395.5 151.031C395.5 149.969 395.625 148.99 395.875 148.094C396.146 147.198 396.521 146.417 397 145.75C397.5 145.083 398.083 144.562 398.75 144.188C399.438 143.812 400.188 143.625 401 143.625C401.479 143.625 401.948 143.729 402.406 143.938C402.885 144.125 403.312 144.406 403.688 144.781C404.062 145.135 404.365 145.573 404.594 146.094C404.823 146.615 404.938 147.208 404.938 147.875C404.938 148.729 404.792 149.531 404.5 150.281C404.208 151.031 403.802 151.729 403.281 152.375C402.781 153.021 402.177 153.615 401.469 154.156C400.76 154.698 400 155.167 399.188 155.562ZM398.25 153.531C398.896 153.26 399.479 152.917 400 152.5C400.542 152.083 401 151.625 401.375 151.125C401.75 150.625 402.042 150.104 402.25 149.562C402.458 149 402.562 148.438 402.562 147.875C402.562 147.25 402.406 146.781 402.094 146.469C401.781 146.135 401.417 145.969 401 145.969C400.438 145.969 399.958 146.125 399.562 146.438C399.167 146.75 398.844 147.156 398.594 147.656C398.344 148.156 398.156 148.719 398.031 149.344C397.927 149.948 397.875 150.552 397.875 151.156C397.875 151.531 397.906 151.927 397.969 152.344C398.052 152.76 398.146 153.156 398.25 153.531ZM432.25 150.344C432.125 150.573 431.906 150.99 431.594 151.594C431.302 152.198 430.896 152.885 430.375 153.656C429.875 154.406 429.271 155.188 428.562 156C427.854 156.812 427.042 157.562 426.125 158.25C425.208 158.917 424.177 159.469 423.031 159.906C421.906 160.344 420.677 160.562 419.344 160.562C418.156 160.562 417.104 160.344 416.188 159.906C415.271 159.49 414.49 158.896 413.844 158.125C413.198 157.333 412.708 156.406 412.375 155.344C412.042 154.281 411.875 153.104 411.875 151.812C411.875 150.562 412.052 149.396 412.406 148.312C412.76 147.208 413.24 146.25 413.844 145.438C414.469 144.625 415.188 143.99 416 143.531C416.812 143.052 417.677 142.812 418.594 142.812C419.281 142.812 419.906 142.938 420.469 143.188C421.031 143.417 421.5 143.729 421.875 144.125C422.271 144.521 422.573 144.958 422.781 145.438C423.01 145.917 423.125 146.396 423.125 146.875C423.125 147.333 423.062 147.76 422.938 148.156C422.833 148.552 422.688 148.906 422.5 149.219C422.333 149.51 422.135 149.75 421.906 149.938C421.677 150.104 421.448 150.188 421.219 150.188C420.865 150.188 420.573 150.073 420.344 149.844C420.135 149.615 420.031 149.333 420.031 149C420.031 148.833 420.062 148.688 420.125 148.562C420.208 148.438 420.292 148.312 420.375 148.188C420.479 148.042 420.562 147.875 420.625 147.688C420.708 147.479 420.75 147.219 420.75 146.906C420.75 146.469 420.542 146.073 420.125 145.719C419.729 145.365 419.219 145.188 418.594 145.188C418.01 145.188 417.448 145.365 416.906 145.719C416.385 146.073 415.927 146.552 415.531 147.156C415.135 147.74 414.812 148.438 414.562 149.25C414.333 150.042 414.219 150.885 414.219 151.781C414.219 152.635 414.323 153.448 414.531 154.219C414.74 154.99 415.052 155.677 415.469 156.281C415.885 156.865 416.406 157.333 417.031 157.688C417.677 158.042 418.438 158.219 419.312 158.219C420.438 158.219 421.479 158.021 422.438 157.625C423.396 157.208 424.271 156.688 425.062 156.062C425.854 155.438 426.552 154.76 427.156 154.031C427.76 153.281 428.271 152.583 428.688 151.938C429.125 151.271 429.458 150.698 429.688 150.219C429.938 149.719 430.083 149.406 430.125 149.281C430.208 149.073 430.344 148.917 430.531 148.812C430.74 148.688 430.958 148.625 431.188 148.625C431.542 148.625 431.823 148.75 432.031 149C432.26 149.25 432.375 149.531 432.375 149.844C432.375 149.969 432.333 150.135 432.25 150.344ZM455.438 127.719C455.438 128.052 455.323 128.323 455.094 128.531C454.865 128.719 454.583 128.812 454.25 128.812H438.406V129.156C438.406 130.427 438.312 131.781 438.125 133.219C437.938 134.656 437.677 136.094 437.344 137.531C437.031 138.948 436.667 140.333 436.25 141.688C435.854 143.042 435.438 144.292 435 145.438C434.583 146.583 434.167 147.583 433.75 148.438C433.333 149.271 432.958 149.896 432.625 150.312C432.896 151.271 433.219 152.167 433.594 153C433.969 153.812 434.385 154.531 434.844 155.156C435.323 155.76 435.833 156.24 436.375 156.594C436.917 156.948 437.5 157.125 438.125 157.125C438.854 157.125 439.573 156.823 440.281 156.219C441.01 155.594 441.677 154.865 442.281 154.031C442.906 153.177 443.448 152.323 443.906 151.469C444.385 150.594 444.729 149.896 444.938 149.375C445.146 148.875 445.51 148.625 446.031 148.625C446.385 148.625 446.667 148.75 446.875 149C447.104 149.25 447.219 149.521 447.219 149.812C447.219 149.958 447.188 150.104 447.125 150.25C447.062 150.396 446.906 150.729 446.656 151.25C446.427 151.771 446.115 152.375 445.719 153.062C445.344 153.75 444.896 154.479 444.375 155.25C443.875 156 443.302 156.688 442.656 157.312C442.031 157.938 441.354 158.458 440.625 158.875C439.896 159.292 439.125 159.5 438.312 159.5C436.875 159.5 435.583 159.031 434.438 158.094C433.292 157.156 432.312 155.844 431.5 154.156C430.708 152.469 430.104 150.469 429.688 148.156C429.271 145.844 429.062 143.312 429.062 140.562C429.062 139.875 429.073 139.073 429.094 138.156C429.115 137.219 429.156 136.24 429.219 135.219C429.281 134.177 429.375 133.115 429.5 132.031C429.625 130.927 429.792 129.854 430 128.812H418.781C418.448 128.812 418.167 128.719 417.938 128.531C417.708 128.323 417.594 128.052 417.594 127.719C417.594 127.385 417.708 127.125 417.938 126.938C418.167 126.729 418.448 126.625 418.781 126.625H430.531C430.74 125.875 430.979 125.188 431.25 124.562C431.542 123.938 431.865 123.396 432.219 122.938C432.594 122.479 433 122.125 433.438 121.875C433.896 121.604 434.396 121.469 434.938 121.469C435.458 121.469 435.906 121.604 436.281 121.875C436.677 122.125 437.01 122.479 437.281 122.938C437.552 123.396 437.76 123.938 437.906 124.562C438.073 125.188 438.198 125.875 438.281 126.625H454.25C454.583 126.625 454.865 126.729 455.094 126.938C455.323 127.125 455.438 127.385 455.438 127.719ZM431.906 147.188C432.531 145.812 433.094 144.333 433.594 142.75C434.115 141.146 434.552 139.531 434.906 137.906C435.281 136.281 435.562 134.688 435.75 133.125C435.958 131.562 436.062 130.125 436.062 128.812H432.375C432.083 130.104 431.844 131.708 431.656 133.625C431.49 135.521 431.406 137.833 431.406 140.562C431.406 142.083 431.448 143.365 431.531 144.406C431.615 145.427 431.74 146.354 431.906 147.188ZM434.812 123.812C434.625 123.812 434.354 124.021 434 124.438C433.646 124.833 433.292 125.562 432.938 126.625H435.938C435.833 125.75 435.677 125.062 435.469 124.562C435.281 124.062 435.062 123.812 434.812 123.812ZM432.406 149.438V149.469V149.438Z" fill="#00EB8F"/>
<path d="M318.764 153.499C304.865 175.49 254.043 153.148 273.911 105.691C293.779 58.2349 344.1 87.1004 315.314 120.228C286.528 153.355 95.0292 121.529 124.862 41.7322C142.453 -5.31725 191.202 -6.41858 186.276 36.5638C179.02 99.8743 82.6374 75.1674 44.8757 46C31.0749 35.3401 6.86535 9.4296 3.07012 2M3.07012 2L21.3562 9.75262M3.07012 2L1 18.1513" stroke="#00EB8F" stroke-width="2"/>
</svg>
